<svg width="16" height="16" viewBox="0 0 16 16" fill="none" xmlns="http://www.w3.org/2000/svg">
<path d="M12.5179 1.33931C12.2975 1.11887 11.9449 1.10398 11.7067 1.30505L7.66167 4.71879L6.89055 3.94767C6.65623 3.71336 6.27633 3.71336 6.04202 3.94767L3.93734 6.05236C3.70302 6.28667 3.70302 6.66657 3.93734 6.90088L6.16478 9.12833L2.05713 13.236L2.76424 13.9431L6.87189 9.83544L9.09922 12.0628C9.33353 12.2971 9.71343 12.2971 9.94774 12.0628L12.0524 9.95808C12.2867 9.72377 12.2867 9.34387 12.0524 9.10955L11.2813 8.33843L14.6951 4.29344C14.8961 4.05519 14.8812 3.70264 14.6608 3.4822L12.5179 1.33931Z" fill="black" fill-opacity="0.9"/>
</svg>
